<?xml version="1.0" standalone="no"?><!DOCTYPE svg PUBLIC "-//W3C//DTD SVG 1.1//EN" "http://www.w3.org/Graphics/SVG/1.1/DTD/svg11.dtd"><svg t="1531360489491" class="icon" style="" viewBox="0 0 1024 1024" version="1.1" xmlns="http://www.w3.org/2000/svg" p-id="1974" xmlns:xlink="http://www.w3.org/1999/xlink" width="64" height="64"><defs><style type="text/css"></style></defs><path d="M504.0128 0C225.5872 0 0 225.621333 0 504.0128 0 782.404267 225.621333 1007.957333 504.0128 1007.957333c278.391467 0 503.978667-225.5872 503.978667-503.978666C1007.991467 225.5872 782.404267 0 504.0128 0z m166.331733 567.0912c22.391467 0 40.686933 18.295467 40.686934 40.686933 0 22.391467-18.295467 40.686933-40.686934 40.686934h-125.6448v104.891733c0 22.391467-18.295467 40.686933-40.686933 40.686933a40.789333 40.789333 0 0 1-40.686933-40.686933v-104.891733H337.783467a40.789333 40.789333 0 0 1-40.686934-40.686934c0-22.391467 18.295467-40.686933 40.686934-40.686933h125.6448v-60.1088H337.783467a40.789333 40.789333 0 0 1-40.686934-40.686933c0-22.391467 18.295467-40.721067 40.686934-40.721067h90.282666l-109.226666-127.3856a40.789333 40.789333 0 0 1 4.437333-57.2416 40.686933 40.686933 0 0 1 57.275733 4.437333l123.562667 143.9744 123.562667-143.9744a40.823467 40.823467 0 0 1 57.275733-4.437333c16.930133 14.574933 18.909867 40.277333 4.437333 57.2416l-109.226666 127.3856h90.3168c22.391467 0 40.686933 18.3296 40.686933 40.721067 0 22.357333-18.295467 40.686933-40.686933 40.686933h-125.781334v60.074667h125.6448z" fill="#F9BF00" p-id="1975"></path></svg>