<?xml version="1.0" standalone="no"?><!DOCTYPE svg PUBLIC "-//W3C//DTD SVG 1.1//EN" "http://www.w3.org/Graphics/SVG/1.1/DTD/svg11.dtd"><svg t="1529219394015" class="icon" style="" viewBox="0 0 1024 1024" version="1.1" xmlns="http://www.w3.org/2000/svg" p-id="1826" xmlns:xlink="http://www.w3.org/1999/xlink" width="500" height="500"><defs><style type="text/css"></style></defs><path d="M189.714286 0h644.571428c104 0 189.714286 85.714286 189.714286 189.714286v644.571428c0 104-85.714286 189.714286-189.714286 189.714286H189.714286C85.714286 1024 0 938.285714 0 834.285714V189.714286C0 85.714286 85.714286 0 189.714286 0z m262.857143 219.428571c65.142857 0 123.428571 26.285714 165.714285 68.571429s68.571429 100.571429 68.571429 164.571429c0 59.428571-21.714286 113.142857-58.285714 154.285714l84.571428 83.428571 66.285714-65.142857c5.714286-6.857143 14.857143-6.857143 20.571429 0 5.714286 5.714286 5.714286 14.857143 0 20.571429l-66.285714 66.285714 66.285714 66.285714c5.714286 5.714286 5.714286 14.857143 0 20.571429s-14.857143 5.714286-20.571429 0l-66.285714-66.285714-67.428571 67.428571c-5.714286 5.714286-16 5.714286-21.714286 0s-5.714286-14.857143 0-20.571429l67.428571-67.428571-83.428571-84.571429c-41.142857 36.571429-96 59.428571-155.428571 59.428572-64 0-122.285714-26.285714-164.571429-68.571429s-68.571429-100.571429-68.571429-165.714285c0-64 26.285714-122.285714 68.571429-164.571429s100.571429-68.571429 164.571429-68.571429z m145.142857 89.142858c-37.714286-36.571429-88-59.428571-145.142857-59.428572-56 0-106.285714 22.857143-144 59.428572-36.571429 37.714286-59.428571 88-59.428572 144 0 57.142857 22.857143 107.428571 59.428572 145.142857 37.714286 36.571429 88 59.428571 144 59.428571 57.142857 0 107.428571-22.857143 145.142857-59.428571 36.571429-37.714286 59.428571-88 59.428571-145.142857 0-56-22.857143-106.285714-59.428571-144z" fill="#f7529e" p-id="1827"></path><path d="M452.571429 219.428571c65.142857 0 123.428571 26.285714 165.714285 68.571429s68.571429 100.571429 68.571429 164.571429c0 59.428571-21.714286 113.142857-58.285714 154.285714l84.571428 83.428571 66.285714-65.142857c5.714286-6.857143 14.857143-6.857143 20.571429 0 5.714286 5.714286 5.714286 14.857143 0 20.571429l-66.285714 66.285714 66.285714 66.285714c5.714286 5.714286 5.714286 14.857143 0 20.571429s-14.857143 5.714286-20.571429 0l-66.285714-66.285714-67.428571 67.428571c-5.714286 5.714286-16 5.714286-21.714286 0s-5.714286-14.857143 0-20.571429l67.428571-67.428571-83.428571-84.571429c-41.142857 36.571429-96 59.428571-155.428571 59.428572-64 0-122.285714-26.285714-164.571429-68.571429s-68.571429-100.571429-68.571429-165.714285c0-64 26.285714-122.285714 68.571429-164.571429s100.571429-68.571429 164.571429-68.571429z m145.142857 89.142858c-37.714286-36.571429-88-59.428571-145.142857-59.428572-56 0-106.285714 22.857143-144 59.428572-36.571429 37.714286-59.428571 88-59.428572 144 0 57.142857 22.857143 107.428571 59.428572 145.142857 37.714286 36.571429 88 59.428571 144 59.428571 57.142857 0 107.428571-22.857143 145.142857-59.428571 36.571429-37.714286 59.428571-88 59.428571-145.142857 0-56-22.857143-106.285714-59.428571-144z" fill="#ffffff" p-id="1828"></path></svg>