<?xml version="1.0" standalone="no"?><!DOCTYPE svg PUBLIC "-//W3C//DTD SVG 1.1//EN" "http://www.w3.org/Graphics/SVG/1.1/DTD/svg11.dtd"><svg t="1529219409824" class="icon" style="" viewBox="0 0 1024 1024" version="1.1" xmlns="http://www.w3.org/2000/svg" p-id="3636" xmlns:xlink="http://www.w3.org/1999/xlink" width="500" height="500"><defs><style type="text/css"></style></defs><path d="M189.714286 0h644.571428c104 0 189.714286 85.714286 189.714286 189.714286v644.571428c0 104-85.714286 189.714286-189.714286 189.714286H189.714286C85.714286 1024 0 938.285714 0 834.285714V189.714286C0 85.714286 85.714286 0 189.714286 0z m262.857143 337.142857c59.428571 0 113.142857 21.714286 154.285714 58.285714l147.428571-146.285714H553.142857c-9.142857 0-14.857143-6.857143-14.857143-14.857143s5.714286-14.857143 14.857143-14.857143h235.428572c4.571429 0 9.142857 1.142857 11.428571 4.571429 3.428571 3.428571 4.571429 6.857143 4.571429 11.428571v211.428572c0 8-6.857143 14.857143-14.857143 14.857143s-14.857143-6.857143-14.857143-14.857143V269.714286L628.571429 416c36.571429 41.142857 58.285714 96 58.285714 155.428571 0 64-26.285714 122.285714-68.571429 164.571429s-100.571429 68.571429-165.714285 68.571429c-64 0-122.285714-26.285714-164.571429-68.571429s-68.571429-100.571429-68.571429-164.571429c0-65.142857 26.285714-123.428571 68.571429-165.714285s100.571429-68.571429 164.571429-68.571429z m145.142857 89.142857c-37.714286-36.571429-88-59.428571-145.142857-59.428571-56 0-107.428571 22.857143-144 59.428571-36.571429 37.714286-59.428571 88-59.428572 145.142857 0 56 22.857143 107.428571 59.428572 144s88 59.428571 144 59.428572c57.142857 0 107.428571-22.857143 145.142857-59.428572 36.571429-36.571429 59.428571-88 59.428571-144 0-57.142857-22.857143-107.428571-59.428571-145.142857z" fill="#43b8f0" p-id="3637"></path><path d="M452.571429 337.142857c59.428571 0 113.142857 21.714286 154.285714 58.285714l147.428571-146.285714H553.142857c-9.142857 0-14.857143-6.857143-14.857143-14.857143s5.714286-14.857143 14.857143-14.857143h235.428572c4.571429 0 9.142857 1.142857 11.428571 4.571429 3.428571 3.428571 4.571429 6.857143 4.571429 11.428571v211.428572c0 8-6.857143 14.857143-14.857143 14.857143s-14.857143-6.857143-14.857143-14.857143V269.714286L628.571429 416c36.571429 41.142857 58.285714 96 58.285714 155.428571 0 64-26.285714 122.285714-68.571429 164.571429s-100.571429 68.571429-165.714285 68.571429c-64 0-122.285714-26.285714-164.571429-68.571429s-68.571429-100.571429-68.571429-164.571429c0-65.142857 26.285714-123.428571 68.571429-165.714285s100.571429-68.571429 164.571429-68.571429z m145.142857 89.142857c-37.714286-36.571429-88-59.428571-145.142857-59.428571-56 0-107.428571 22.857143-144 59.428571-36.571429 37.714286-59.428571 88-59.428572 145.142857 0 56 22.857143 107.428571 59.428572 144s88 59.428571 144 59.428572c57.142857 0 107.428571-22.857143 145.142857-59.428572 36.571429-36.571429 59.428571-88 59.428571-144 0-57.142857-22.857143-107.428571-59.428571-145.142857z" fill="#ffffff" p-id="3638"></path></svg>