<?xml version="1.0" standalone="no"?><!DOCTYPE svg PUBLIC "-//W3C//DTD SVG 1.1//EN" "http://www.w3.org/Graphics/SVG/1.1/DTD/svg11.dtd"><svg t="1529205108056" class="icon" style="" viewBox="0 0 1024 1024" version="1.1" xmlns="http://www.w3.org/2000/svg" p-id="1960" xmlns:xlink="http://www.w3.org/1999/xlink" width="500" height="500"><defs><style type="text/css"></style></defs><path d="M618.724222 0.019593H405.04066c-26.254903 0-47.141266 23.355108-47.141267 52.157129s20.945143 52.274688 47.141267 52.274687h215.133459c24.922565 0 45.926487-23.355108 45.926488-52.294281S644.979125 0.019593 618.724222 0.019593z m0 0M742.043893 745.404129H279.134684c-17.08528 0-34.072594-20.886363-34.072594-37.991237a32.074087 32.074087 0 0 1 31.505884-31.603849h461.57687a33.053747 33.053747 0 0 1 32.720663 31.525477c0 17.104873-11.755927 37.991237-28.821614 37.991236z m1.959322-185.763236H281.035226c-17.08528 0-27.920326-18.319653-27.920326-35.424526s14.40101-34.17056 31.505883-34.17056h461.557278c17.104873 0 31.505884 15.870501 32.740256 34.17056 0 17.104873-17.986568 35.424526-34.973882 35.424526z m0-190.798691H281.035226c-17.08528 0-27.920326-18.319653-27.920326-35.404933s14.40101-34.190154 31.505883-34.190153h461.557278c17.104873 0 31.505884 15.870501 32.740256 34.190153 0 17.08528-17.986568 35.404933-34.973882 35.404933z m0 0" p-id="1961"></path><path d="M839.911984 1024h-666.169183c-49.78635 0-87.522875-13.891587-112.112355-41.263303C38.804355 957.422268 27.753784 921.782217 27.753784 873.876815V172.185141c0-47.141266 8.875725-80.72403 27.959512-105.705375 23.237549-30.408664 60.758548-45.808928 111.524559-45.808928h146.126169l-7.367047 37.599372a60.327497 60.327497 0 0 0-1.195186 11.266097c0 28.057479 19.887109 55.566347 40.14649 55.566347h326.951916c20.181008 0 38.069609-31.035647 38.06961-55.566347a59.622142 59.622142 0 0 0-1.077627-11.246504l-7.367047-37.618965h144.793831c92.421178 0 149.84888 58.054685 149.848879 151.514303v701.691674c0 51.667298-13.440943 89.129518-41.145743 114.52232-26.019785 23.923311-63.717123 35.600865-115.110116 35.600865zM167.237855 83.780571c-57.799973 0-76.413524 21.552532-76.413524 88.40457v701.691674c0 64.285326 21.670092 87.072231 82.820504 87.072231h666.169183c34.856323 0 58.583702-6.230641 72.494881-19.025008s20.670838-35.032662 20.670838-68.047223V172.185141c0-58.662075-29.174292-88.404569-86.719553-88.40457h-73.905593c-6.40698 57.075024-50.609265 104.451409-100.454394 104.45141H344.928688c-28.292597 0-55.801466-14.224671-75.512237-39.029677a130.627939 130.627939 0 0 1-26.921072-65.421733z" p-id="1962"></path></svg>