<?xml version="1.0" standalone="no"?><!DOCTYPE svg PUBLIC "-//W3C//DTD SVG 1.1//EN" "http://www.w3.org/Graphics/SVG/1.1/DTD/svg11.dtd"><svg t="1529660417717" class="icon" style="" viewBox="0 0 1024 1024" version="1.1" xmlns="http://www.w3.org/2000/svg" p-id="3041" xmlns:xlink="http://www.w3.org/1999/xlink" width="64" height="64"><defs><style type="text/css"></style></defs><path d="M781.473684 970.105263H215.578947c-59.284211 0-107.789474-48.505263-107.789473-107.789474V107.789474c0-59.284211 48.505263-107.789474 107.789473-107.789474h565.894737c59.284211 0 107.789474 48.505263 107.789474 107.789474v754.526315c0 59.284211-48.505263 107.789474-107.789474 107.789474z" fill="#FFE7E8" p-id="3042"></path><path d="M781.473684 53.894737c29.642105 0 53.894737 24.252632 53.894737 53.894737v754.526315c0 29.642105-24.252632 53.894737-53.894737 53.894737H215.578947c-29.642105 0-53.894737-24.252632-53.894736-53.894737V107.789474c0-29.642105 24.252632-53.894737 53.894736-53.894737h565.894737m0-53.894737H215.578947C156.294737 0 107.789474 48.505263 107.789474 107.789474v754.526315c0 59.284211 48.505263 107.789474 107.789473 107.789474h565.894737c59.284211 0 107.789474-48.505263 107.789474-107.789474V107.789474c0-59.284211-48.505263-107.789474-107.789474-107.789474z" fill="#FF5155" p-id="3043"></path><path d="M291.031579 132.042105h414.989474c26.947368 0 48.505263 21.557895 48.505263 43.11579v156.294737c0 26.947368-21.557895 43.115789-48.505263 43.115789H291.031579c-26.947368 0-48.505263-21.557895-48.505263-43.115789V177.852632c0-26.947368 24.252632-45.810526 48.505263-45.810527z" fill="#FFFFFF" p-id="3044"></path><path d="M708.715789 404.210526H291.031579C250.610526 404.210526 215.578947 374.568421 215.578947 334.147368V177.852632C215.578947 137.431579 250.610526 107.789474 291.031579 107.789474h414.989474C746.442105 107.789474 781.473684 137.431579 781.473684 177.852632v156.294736c2.694737 37.726316-32.336842 70.063158-72.757895 70.063158zM291.031579 158.989474c-10.778947 0-18.863158 5.389474-18.863158 16.168421v156.294737c0 10.778947 8.084211 18.863158 18.863158 18.863157h414.989474c10.778947 0 18.863158-8.084211 18.863158-18.863157V177.852632c0-10.778947-8.084211-18.863158-18.863158-18.863158H291.031579z" fill="#FF5155" p-id="3045"></path><path d="M781.473684 1024c-118.568421 0-215.578947-97.010526-215.578947-215.578947s97.010526-215.578947 215.578947-215.578948 215.578947 97.010526 215.578948 215.578948-97.010526 215.578947-215.578948 215.578947z" fill="#FFFFFF" p-id="3046"></path><path d="M781.473684 646.736842c88.926316 0 161.684211 72.757895 161.684211 161.684211s-72.757895 161.684211-161.684211 161.68421-161.684211-72.757895-161.68421-161.68421 72.757895-161.684211 161.68421-161.684211m0-53.894737c-118.568421 0-215.578947 97.010526-215.578947 215.578948s97.010526 215.578947 215.578947 215.578947 215.578947-97.010526 215.578948-215.578947-97.010526-215.578947-215.578948-215.578948zM485.052632 512h26.947368c29.642105 0 53.894737 24.252632 53.894737 53.894737v26.947368c0 29.642105-24.252632 53.894737-53.894737 53.894737h-26.947368c-29.642105 0-53.894737-24.252632-53.894737-53.894737v-26.947368c0-29.642105 24.252632-53.894737 53.894737-53.894737zM269.473684 512h26.947369c29.642105 0 53.894737 24.252632 53.894736 53.894737v26.947368c0 29.642105-24.252632 53.894737-53.894736 53.894737h-26.947369c-29.642105 0-53.894737-24.252632-53.894737-53.894737v-26.947368c0-29.642105 24.252632-53.894737 53.894737-53.894737z" fill="#FF5155" p-id="3047"></path><path d="M700.631579 512h26.947368c29.642105 0 53.894737 24.252632 53.894737 53.894737v26.947368c0 29.642105-24.252632 53.894737-53.894737 53.894737h-26.947368c-29.642105 0-53.894737-24.252632-53.894737-53.894737v-26.947368c0-29.642105 24.252632-53.894737 53.894737-53.894737zM269.473684 700.631579h26.947369c29.642105 0 53.894737 24.252632 53.894736 53.894737v26.947368c0 29.642105-24.252632 53.894737-53.894736 53.894737h-26.947369c-29.642105 0-53.894737-24.252632-53.894737-53.894737v-26.947368c0-29.642105 24.252632-53.894737 53.894737-53.894737zM485.052632 700.631579h26.947368c29.642105 0 53.894737 24.252632 53.894737 53.894737v26.947368c0 29.642105-24.252632 53.894737-53.894737 53.894737h-26.947368c-29.642105 0-53.894737-24.252632-53.894737-53.894737v-26.947368c0-29.642105 24.252632-53.894737 53.894737-53.894737z" fill="#FF5155" p-id="3048"></path><path d="M862.315789 786.863158v-8.084211c0-13.473684-10.778947-21.557895-21.557894-21.557894l16.168421-16.168421c8.084211-8.084211 8.084211-24.252632 0-32.336843-8.084211-8.084211-21.557895-8.084211-29.642105 0L781.473684 754.526316l-45.810526-48.505263c-8.084211-8.084211-21.557895-8.084211-29.642105 0-8.084211 8.084211-8.084211 24.252632 0 32.336842l16.168421 16.168421c-10.778947 0-21.557895 10.778947-21.557895 21.557895v8.08421c0 13.473684 10.778947 21.557895 21.557895 21.557895H754.526316v13.473684h-32.336842c-13.473684 0-21.557895 10.778947-21.557895 21.557895v8.08421c0 13.473684 10.778947 21.557895 21.557895 21.557895H754.526316v32.336842c0 18.863158 10.778947 32.336842 21.557895 32.336842h10.778947c10.778947 0 21.557895-13.473684 21.557895-32.336842v-32.336842h32.336842c13.473684 0 21.557895-10.778947 21.557894-21.557895v-8.08421c0-13.473684-10.778947-21.557895-21.557894-21.557895H808.421053v-8.084211-5.389473h32.336842c10.778947 2.694737 21.557895-8.084211 21.557894-18.863158z" fill="#FF5155" p-id="3049"></path></svg>