<?xml version="1.0" standalone="no"?><!DOCTYPE svg PUBLIC "-//W3C//DTD SVG 1.1//EN" "http://www.w3.org/Graphics/SVG/1.1/DTD/svg11.dtd"><svg t="1531360610486" class="icon" style="" viewBox="0 0 1025 1024" version="1.1" xmlns="http://www.w3.org/2000/svg" p-id="2653" xmlns:xlink="http://www.w3.org/1999/xlink" width="64.0625" height="64"><defs><style type="text/css"></style></defs><path d="M850.94836531 172.61c-187.47-187.47-490.41-187.47-677.88 0s-188.4 491.28-0.93 678.75c187.47 187.5 492.24 187.5 679.74 0C1039.34836531 663.89 1038.41836531 360.08 850.94836531 172.61zM689.66836531 485.51l0 94.83-129.93 0 0 38.07 129.93 0 0 93.45-129.93 0 0 101.16-104.25 0 0-101.16L326.12836531 711.86l0-93.45 129.36 0 0-38.07L326.12836531 580.34l0-94.83 78.72 0L284.90836531 251.78l118.77 0 77.13 160.17c9.78 20.58 16.71 33.21 20.82 48.9 4.89-16.98 11.85-29.61 20.85-48.9l78.66-160.17 118.77 0-121.47 233.73L689.66836531 485.51z" fill="#0e932e" p-id="2654"></path></svg>